<svg width="65" height="65" viewBox="0 0 65 65" fill="none" xmlns="http://www.w3.org/2000/svg">
<path d="M17.5 26.25C17.5 25.5083 17.7199 24.7833 18.132 24.1666C18.5441 23.5499 19.1297 23.0693 19.8149 22.7854C20.5002 22.5016 21.2542 22.4274 21.9816 22.5721C22.709 22.7167 23.3772 23.0739 23.9017 23.5983C24.4261 24.1228 24.7833 24.791 24.928 25.5184C25.0726 26.2458 24.9984 26.9998 24.7146 27.6851C24.4307 28.3703 23.9501 28.956 23.3334 29.368C22.7167 29.7801 21.9917 30 21.25 30C20.2554 30 19.3016 29.6049 18.5984 28.9016C17.8951 28.1984 17.5 27.2446 17.5 26.25ZM43.75 22.5C43.0083 22.5 42.2833 22.7199 41.6666 23.132C41.0499 23.544 40.5693 24.1297 40.2855 24.8149C40.0016 25.5002 39.9274 26.2542 40.0721 26.9816C40.2168 27.709 40.5739 28.3772 41.0984 28.9016C41.6228 29.4261 42.291 29.7832 43.0184 29.9279C43.7458 30.0726 44.4998 29.9984 45.1851 29.7145C45.8703 29.4307 46.456 28.9501 46.868 28.3334C47.2801 27.7167 47.5 26.9917 47.5 26.25C47.5 25.2554 47.1049 24.3016 46.4017 23.5983C45.6984 22.8951 44.7446 22.5 43.75 22.5ZM65 32.5C65 38.9279 63.0939 45.2114 59.5228 50.556C55.9516 55.9006 50.8758 60.0662 44.9372 62.5261C38.9986 64.9859 32.464 65.6295 26.1596 64.3755C19.8552 63.1215 14.0642 60.0262 9.51904 55.481C4.97384 50.9358 1.87851 45.1448 0.624493 38.8404C-0.629527 32.536 0.0140817 26.0014 2.47393 20.0628C4.93378 14.1242 9.09938 9.04838 14.444 5.47724C19.7886 1.90609 26.0721 0 32.5 0C41.1145 0.0165187 49.3714 3.44592 55.4627 9.53727C61.5541 15.6286 64.9835 23.8855 65 32.5ZM60 32.5C60 27.061 58.3872 21.7442 55.3654 17.2218C52.3437 12.6995 48.0488 9.17472 43.0238 7.09331C37.9988 5.0119 32.4695 4.46731 27.135 5.5284C21.8006 6.5895 16.9005 9.20862 13.0546 13.0546C9.20863 16.9005 6.58951 21.8005 5.52842 27.135C4.46732 32.4695 5.01192 37.9988 7.09333 43.0238C9.17474 48.0488 12.6995 52.3437 17.2218 55.3654C21.7442 58.3871 27.061 60 32.5 60C39.7909 59.9917 46.7808 57.0918 51.9363 51.9363C57.0918 46.7808 59.9917 39.7909 60 32.5ZM45 40H20C19.337 40 18.7011 40.2634 18.2322 40.7322C17.7634 41.2011 17.5 41.837 17.5 42.5C17.5 43.163 17.7634 43.7989 18.2322 44.2678C18.7011 44.7366 19.337 45 20 45H45C45.663 45 46.2989 44.7366 46.7678 44.2678C47.2366 43.7989 47.5 43.163 47.5 42.5C47.5 41.837 47.2366 41.2011 46.7678 40.7322C46.2989 40.2634 45.663 40 45 40Z" fill="#72C9CE"/>
</svg>
