<svg width="61" height="61" viewBox="0 0 61 61" fill="none" xmlns="http://www.w3.org/2000/svg">
<path d="M45.1464 37.4124C45.1464 40.0845 45.9057 41.1502 47.8914 41.1502C52.317 41.1502 55.1351 35.5038 55.1351 26.1133C55.1351 11.7604 44.6889 4.88929 31.6469 4.88929C18.2301 4.88929 6.02693 13.898 6.02693 30.9231C6.02693 47.1847 16.7019 56.0407 33.0957 56.0407C38.6619 56.0407 42.3982 55.43 48.1138 53.5213L49.3401 58.6333C43.6976 60.4688 37.6675 61 33.0194 61C11.5169 61 0 49.1665 0 30.9199C0 12.5206 13.3469 0 31.7232 0C50.8619 0 61 11.4518 61 25.4994C61 37.4093 57.2669 46.4944 45.5244 46.4944C40.1838 46.4944 36.6794 44.3567 36.2219 39.6201C34.8494 44.8879 31.1894 46.4944 26.23 46.4944C19.5963 46.4944 14.03 41.376 14.03 31.0726C14.03 20.6896 18.9132 14.2766 27.6819 14.2766C32.3332 14.2766 35.2307 16.1089 36.5206 19.01L38.735 14.9637H45.14V37.4124H45.1464ZM35.7708 27.3348C35.7708 23.139 32.6414 21.3799 30.0489 21.3799C27.2276 21.3799 24.1045 23.6671 24.1045 30.3887C24.1045 35.7328 26.4683 38.7103 30.0489 38.7103C32.5651 38.7103 35.7708 37.1071 35.7708 32.679V27.3348Z" fill="#72C9CE"/>
</svg>
