<?xml version="1.0" encoding="utf-8"?>
<!-- Generator: Adobe Illustrator 24.0.0, SVG Export Plug-In . SVG Version: 6.00 Build 0)  -->
<svg version="1.1" id="Layer_1" xmlns="http://www.w3.org/2000/svg" xmlns:xlink="http://www.w3.org/1999/xlink" x="0px" y="0px"
	 viewBox="0 0 512 512" style="enable-background:new 0 0 512 512;" xml:space="preserve">
<style type="text/css">
	.st0{fill:#FFFFFF;}
	.st1{display:none;}
	.st2{display:inline;}
	.st3{fill:#24E900;}
</style>
<g>
	<g>
		<path class="st0" d="M379.5,212.3c-1.3-3.3-4.5-5.4-8.1-5.4c-65.5,0-125.3,20.6-159.8,55.2c-30.8,31.2-30.7,81.2-0.1,112.3
			c16.6-35.2,39.1-67.3,66.5-95.2c3.3-3.5,8.9-3.6,12.3-0.2c3.5,3.3,3.6,8.9,0.2,12.3c-0.1,0.1-0.1,0.1-0.2,0.2
			c-27.1,27.5-48.9,59.5-64.7,94.3c30.9,19.7,72.2,16.2,99.4-10.5c14.9-14.9,19.5-42.5,24.3-71.8c5.2-31.4,10.5-64.1,28.4-81.9
			C380.1,219.4,380.8,215.6,379.5,212.3z"/>
		<path class="st0" d="M128.1,268.9c3.4-3.3,8.7-3.3,12.1,0c5,5,10.3,13.5,15.5,23.9c15.4-17.5,14.8-44.1-1.9-60.8l0,0
			c-22.9-20-52.6-30.3-83-28.9c-4.8,0-8.7,3.9-8.7,8.7c0,2.3,0.9,4.6,2.6,6.2c7.8,11.4,12.3,24.8,13,38.6
			c0.6,13.8,5.3,27.1,13.4,38.2c13.7,13.7,34.1,16.5,50.6,8.6c-4.8-10.1-9.5-18-13.7-22.2C124.5,277.7,124.6,272.2,128.1,268.9z"/>
		<path class="st0" d="M211.5,374.5c-5.4,11.5-10.3,23.3-14.4,35.4c-9.4-33.3-25.3-85-41.3-117.1c-0.6,0.7-1.2,1.4-1.9,2.1
			c-3.7,3.7-7.8,6.5-12.2,8.6c18.4,38.8,39,110.8,46.8,141.3c1,3.9,4.5,6.6,8.4,6.6h0.3c4.1-0.1,7.5-3.1,8.3-7.1
			c4.9-20.1,11.7-39.6,20.1-58.3c-4.7-3-9.1-6.5-13.2-10.5C212,375.2,211.8,374.8,211.5,374.5z"/>
	</g>
	<g>
		<g>
			<path class="st0" d="M409.9,114.4l-9.7-9.7l49.4-49.4l-18.4-18.4c-26.6,26.6-53.1,53.3-79.7,80c-0.9,0.9-1.6,2.4-1.8,3.7
				c-1.4,10-2.6,20-3.9,29.9c-0.9,7-1.8,14-2.7,21.5c1.4-0.1,2.4-0.1,3.3-0.2c16.1-2.3,32.2-4.5,48.3-7c1.4-0.2,2.9-1.1,3.9-2.1
				c12.7-12.6,25.3-25.3,37.9-38c13.7-13.8,27.5-27.6,41.2-41.3l-18.3-18.3L409.9,114.4z"/>
			<path class="st0" d="M449.6,55.3l9.7,9.7l9.7-9.7l18.3,18.3c4.2-4.3,8.5-8.5,12.7-12.8c5.2-5.2,5.3-11.1,0.1-16.3
				c-10.2-10.2-20.4-20.4-30.6-30.5c-4.8-4.7-10.9-4.7-15.6,0c-4.4,4.4-8.7,8.7-13.1,13.1l18.4,18.4L449.6,55.3z"/>
		</g>
		<g>
			<path class="st0" d="M411.5,393.4c0,45.2-37,82.2-82.2,82.2H118.2c-45.2,0-82.2-37-82.2-82.2V182.3c0-45.2,37-82.2,82.2-82.2
				h153.5V73.4H103.2c-51.6,0-93.9,42.2-93.9,93.9v241.1c0,51.6,42.2,93.9,93.9,93.9h241.1c51.6,0,93.9-42.2,93.9-93.9V244.9h-26.7
				L411.5,393.4L411.5,393.4z"/>
		</g>
	</g>
</g>
<g id="Layer_1_1_" class="st1">
	<g class="st2">
		<g>
			<path class="st3" d="M511,1v510H1V1H511 M512,0H0v512h512V0L512,0z"/>
		</g>
		<g>
			<path class="st3" d="M505,7v498H7V7H505 M506,6H6v500h500V6L506,6z"/>
		</g>
	</g>
</g>
</svg>
