<?xml version="1.0" encoding="utf-8"?>
<!-- Generator: Adobe Illustrator 24.0.0, SVG Export Plug-In . SVG Version: 6.00 Build 0)  -->
<svg version="1.1" xmlns="http://www.w3.org/2000/svg" xmlns:xlink="http://www.w3.org/1999/xlink" x="0px" y="0px"
	 viewBox="0 0 512 512" style="enable-background:new 0 0 512 512;" xml:space="preserve">
<style type="text/css">
	.st0{display:none;}
	.st1{display:inline;}
	.st2{fill:#24E900;}
	.st3{fill:#FFFFFF;}
</style>
<g id="Layer_1" class="st0">
	<g class="st1">
		<g>
			<path class="st2" d="M511,1v510H1V1H511 M512,0H0v512h512V0L512,0z"/>
		</g>
		<g>
			<path class="st2" d="M505,7v498H7V7H505 M506,6H6v500h500V6L506,6z"/>
		</g>
	</g>
</g>
<g id="Layer_2">
	<g>
		<path class="st3" d="M75.5,417.4l-22.7,22.7l-13.5-80.9l80.9,13.5l-22.7,22.7c5.5,3.9,57.3,71.4,154.4,71.9c0.4,0,0.7,0,1.1,0
			c109.8,0,205.6-91.2,203.8-207.3l31.3,5.2C486.9,393.8,383.6,498,254.1,498c-0.3,0-0.7,0-1,0C140.6,497.5,81.2,421.3,75.5,417.4z"
			/>
		<path class="st3" d="M385.8,153.2l22.7-22.7c-5.5-3.9-57.7-71.9-155.5-71.9c-109.8,0-205.6,91.2-203.8,207.3L18,260.7
			C19.2,132,122.6,27.9,252,27.9h1c112.5,0.5,171.9,76.6,177.6,80.6l22.7-22.7l13.5,80.9L385.8,153.2z"/>
		<path class="st3" d="M253.1,329.7c-13.2,0-24-10.8-24-24h-48c0,31.3,20.1,58,48,67.9v52.1h48v-52.1c27.9-9.9,48-36.6,48-67.9
			c0-39.7-32.3-72-72-72c-13.2,0-24-10.8-24-24c0-13.2,10.8-24,24-24c13.2,0,24,10.8,24,24h48c0-31.3-20.1-58-48-67.9V89.7h-48v52.1
			c-27.9,9.9-48,36.6-48,67.9c0,39.7,32.3,72,72,72c13.2,0,24,10.8,24,24C277.1,319,266.3,329.7,253.1,329.7z"/>
	</g>
</g>
</svg>
