<?xml version="1.0" encoding="utf-8"?>
<!-- Generator: Adobe Illustrator 24.0.0, SVG Export Plug-In . SVG Version: 6.00 Build 0)  -->
<svg version="1.1" xmlns="http://www.w3.org/2000/svg" xmlns:xlink="http://www.w3.org/1999/xlink" x="0px" y="0px"
	 viewBox="0 0 512 512" style="enable-background:new 0 0 512 512;" xml:space="preserve">
<style type="text/css">
	.st0{display:none;}
	.st1{display:inline;}
	.st2{fill:#24E900;}
	.st3{fill:#FFFFFF;}
</style>
<g id="Layer_1" class="st0">
	<g class="st1">
		<g>
			<path class="st2" d="M511,1v510H1V1H511 M512,0H0v512h512V0L512,0z"/>
		</g>
		<g>
			<path class="st2" d="M505,7v498H7V7H505 M506,6H6v500h500V6L506,6z"/>
		</g>
	</g>
</g>
<g id="Layer_2">
	<g>
		<g>
			<path class="st3" d="M246.1,302c1.6,0,3.2-0.6,4.3-1.8l7.2-7.2c11.9-11.9,12-31.3,0-43.3l0,0l-53.3-53.2
				c-17.5-17.5-45.8-17.5-63.3,0l-22.7,22.7c-11.9,11.9-12,31.3,0,43.3l0,0l1.1,1.1c2.4,2.3,6.3,2.3,8.7-0.2c2.3-2.4,2.3-6.1,0-8.5
				l-1.1-1.1c-7.2-7.2-7.2-18.8,0-26l0,0l22.7-22.7c12.7-12.7,33.3-12.7,46,0l53.2,53.2c7.2,7.2,7.2,18.8,0,26l0,0l-7.2,7.2
				c-2.4,2.4-2.4,6.3,0,8.7C242.9,301.4,244.5,302,246.1,302L246.1,302L246.1,302z"/>
			<path class="st3" d="M76.9,297.4l91.8-79.5c2.4-2.1,6.1-2,8.3,0.3l73.4,73.4c2.4,2.4,2.4,6.3,0,8.7l-14.2,14.2l0.5,1.5l40.6,4.5
				c3.4,0.4,5.8,3.4,5.4,6.7c0,0,0,0,0,0c-0.3,3.1-3,5.4-6.1,5.3v12.3c3.4,0,6.1,2.7,6.1,6.1s-2.7,6.1-6.1,6.1h-77L164.8,392
				c-1.1,1.1-2.7,1.8-4.3,1.8h-0.1c-1.7,0-3.2-0.7-4.4-2l-79.5-85.7c-2.3-2.5-2.2-6.3,0.3-8.6C76.8,297.5,76.8,297.4,76.9,297.4
				L76.9,297.4z"/>
			<g>
				<path class="st3" d="M362.4,399.9c3.4,0,6.1-2.7,6.1-6.1v-24.5c0-33.8-27.4-61.1-61.2-61.2c-3.4,0-6.1,2.7-6.1,6.1
					c0,3.4,2.7,6.1,6.1,6.1c27,0,49,21.9,49,48.9v24.5C356.2,397.1,359,399.9,362.4,399.9z"/>
				<path class="st3" d="M337.9,399.9c3.4,0,6.1-2.7,6.1-6.1v-24.5c0-20.3-16.4-36.7-36.7-36.7c-3.4,0-6.1,2.7-6.1,6.1
					c0,3.4,2.7,6.1,6.1,6.1c13.5,0,24.5,11,24.5,24.5v24.5C331.8,397.1,334.5,399.9,337.9,399.9z"/>
				<path class="st3" d="M313.4,399.9c3.4,0,6.1-2.7,6.1-6.1v-24.5c0-6.8-5.5-12.2-12.2-12.2c-3.1,0.1-5.6,2.6-5.6,5.7
					c0,3.3,2.4,6.1,5.6,6.5v24.5C307.3,397.1,310,399.9,313.4,399.9z"/>
			</g>
			<path class="st3" d="M273,321.6l24.5-18.4c2.7-2,6.5-1.5,8.6,1.2c0.8,1.1,1.2,2.3,1.2,3.7v61.2c0,3.4-2.7,6.1-6.1,6.1
				c-1.3,0-2.6-0.4-3.7-1.2L273,355.8c-1.5-1.2-2.4-3-2.4-4.9v-24.5C270.6,324.5,271.5,322.7,273,321.6z"/>
		</g>
		<g>
			<g>
				<path class="st3" d="M406.8,113.7l-9.5-9.5l48.4-48.4l-18-18c-26.1,26.1-52.1,52.3-78.1,78.4c-0.9,0.9-1.6,2.4-1.8,3.6
					c-1.4,9.8-2.6,19.6-3.8,29.4c-0.9,6.9-1.8,13.8-2.7,21.1c1.4-0.1,2.3-0.1,3.2-0.2c15.8-2.2,31.6-4.5,47.3-6.8
					c1.4-0.2,2.8-1.1,3.8-2.1c12.4-12.4,24.8-24.8,37.2-37.2c13.5-13.5,27-27,40.4-40.5l-18-18L406.8,113.7z"/>
				<path class="st3" d="M445.6,55.7l9.5,9.5l9.5-9.5l18,18c4.2-4.2,8.3-8.3,12.5-12.5c5.1-5.1,5.2-10.9,0.1-16
					c-10-10-20-20-30-29.9c-4.7-4.6-10.6-4.6-15.3,0c-4.3,4.3-8.5,8.6-12.8,12.8l18.1,18.1L445.6,55.7z"/>
			</g>
			<g>
				<path class="st3" d="M408.3,387.1c0,44.3-36.3,80.6-80.6,80.6h-207c-44.3,0-80.6-36.3-80.6-80.6v-207
					c0-44.3,36.3-80.6,80.6-80.6h150.5V73.5H106c-50.6,0-92,41.4-92,92v236.4c0,50.6,41.4,92,92,92h236.4c50.6,0,92-41.4,92-92
					V241.5h-26.2V387.1z"/>
			</g>
		</g>
	</g>
</g>
</svg>
