<?xml version="1.0" encoding="utf-8"?>
<!-- Generator: Adobe Illustrator 24.0.0, SVG Export Plug-In . SVG Version: 6.00 Build 0)  -->
<svg version="1.1" xmlns="http://www.w3.org/2000/svg" xmlns:xlink="http://www.w3.org/1999/xlink" x="0px" y="0px"
	 viewBox="0 0 512 512" style="enable-background:new 0 0 512 512;" xml:space="preserve">
<style type="text/css">
	.st0{display:none;}
	.st1{display:inline;}
	.st2{fill:#24E900;}
	.st3{fill:#FFFFFF;}
</style>
<g id="Layer_1" class="st0">
	<g class="st1">
		<g>
			<path class="st2" d="M511,1v510H1V1H511 M512,0H0v512h512V0L512,0z"/>
		</g>
		<g>
			<path class="st2" d="M505,7v498H7V7H505 M506,6H6v500h500V6L506,6z"/>
		</g>
	</g>
</g>
<g id="Layer_2">
	<g id="Fertilizer_1_">
		<g id="Glyph_1_">
			<path class="st3" d="M297.7,329.7c21.9-11.7,35.9-43.9,36.5-45.2c1.7-4.1-0.3-8.7-4.3-10.4c-0.5-0.2-1-0.3-1.5-0.4
				c-1.5-0.3-36-6.4-57.8,5.3c-5.9,3.1-10.9,7.6-14.6,13c-3.7-5.5-8.8-9.9-14.6-13c-21.9-11.7-56.4-5.6-57.8-5.3
				c-4.3,0.8-7.1,5-6.3,9.3c0.1,0.5,0.3,1,0.5,1.5c0.6,1.4,14.6,33.5,36.5,45.2c12.1,6.5,24,6,34.3,2.5v18.7
				c-20.1,3.1-35.9,18.7-39.3,38.7h-15.6c-4.2-0.1-7.8,3.3-7.8,7.5c-0.1,4.2,3.3,7.8,7.5,7.8c0.1,0,0.2,0,0.3,0h125.6
				c4.2,0.1,7.8-3.3,7.8-7.5c0.1-4.2-3.3-7.8-7.5-7.8c-0.1,0-0.2,0-0.3,0H302c-3.3-19.5-18.4-34.8-37.9-38.5v-18.9
				C274.4,335.2,287.1,335.4,297.7,329.7z"/>
			<path class="st3" d="M256.3,4.8c-37.1,0-101.4,54.9-142.2,96.6c-3,3.1-3,8.1,0.1,11.1c1.5,1.4,3.4,2.2,5.5,2.2h272.7
				c4.3,0,7.9-3.5,7.9-7.8c0-2.1-0.8-4.1-2.3-5.5C356.4,59.6,290.7,4.8,256.3,4.8z M185.6,99c-4.3,0-7.9-3.5-7.9-7.9
				s3.5-7.9,7.9-7.9c4.3,0,7.9,3.5,7.9,7.9S190,99,185.6,99z M217,67.6c-4.3,0-7.9-3.5-7.9-7.9s3.5-7.9,7.9-7.9
				c4.3,0,7.9,3.5,7.9,7.9S221.4,67.6,217,67.6z M232.7,99c-4.3,0-7.9-3.5-7.9-7.9s3.5-7.9,7.9-7.9c4.3,0,7.9,3.5,7.9,7.9
				S237.1,99,232.7,99z M240.6,36.2c-4.3,0-7.9-3.5-7.9-7.9s3.5-7.9,7.9-7.9c4.3,0,7.9,3.5,7.9,7.9S244.9,36.2,240.6,36.2z
				 M256.3,59.8c-4.3,0-7.9-3.5-7.9-7.9s3.5-7.9,7.9-7.9c4.3,0,7.9,3.5,7.9,7.9S260.6,59.8,256.3,59.8z M272,99
				c-4.3,0-7.9-3.5-7.9-7.9s3.5-7.9,7.9-7.9c4.3,0,7.9,3.5,7.9,7.9S276.3,99,272,99z M279.9,44c-4.3,0-7.9-3.5-7.9-7.9
				s3.5-7.9,7.9-7.9c4.3,0,7.9,3.5,7.9,7.9S284.2,44,279.9,44z M295.6,75.5c-4.3,0-7.9-3.5-7.9-7.9c0-4.3,3.5-7.9,7.9-7.9
				c4.3,0,7.9,3.5,7.9,7.9C303.4,71.9,299.9,75.5,295.6,75.5z M327,99c-4.3,0-7.9-3.5-7.9-7.9s3.5-7.9,7.9-7.9
				c4.3,0,7.9,3.5,7.9,7.9S331.3,99,327,99z"/>
			<path class="st3" d="M468.3,311c0-20.3-7-65.3-13.4-102.2c12.9-1.3,22.4-12.8,21.1-25.7c-0.5-5-2.6-9.7-5.9-13.4
				c4.1-4.6,6.3-10.7,6-16.9c-0.6-12.6-11.4-22.4-24-22.4h-400c-8.7,0-15.7,7-15.7,15.7l0,0c0,8.7,7,15.7,15.7,15.7h259.1
				c4.3,0,7.9,3.5,7.9,7.9l0,0c0,4.3-3.5,7.9-7.9,7.9h-267c-4.3,0-7.8,3.5-7.9,7.9c0,12.1,9.2,22.2,21.2,23.4
				c-6.4,36.9-13.4,81.9-13.4,102.2c0,81.6,5,113.9,7.3,124.2c-1.9,3.7-15.1,20.7-15.1,25c0,18.7,19.4,30.7,36.7,23.9
				c131.4,28.5,220.8,31.5,366.2,0c17.1,6.7,36.8-5.2,36.8-23.9c0-4.3-13.1-21.4-15.1-25C463.3,425,468.3,392.6,468.3,311z
				 M291.6,444.5H221c-58.5,0-106-47.5-106-106s47.5-106,106-106h70.7c58.5,0,106,47.5,106,106S350.2,444.5,291.6,444.5z
				 M420.9,177.5h-62.6c-4.3,0-7.9-3.5-7.9-7.9l0,0c0-4.3,3.5-7.9,7.9-7.9h62.8c4.3,0,7.9,3.5,7.9,7.9c0,0.2,0,0.3,0,0.5
				C428.7,174.4,425.1,177.6,420.9,177.5z"/>
		</g>
	</g>
</g>
</svg>
