<?xml version="1.0" encoding="utf-8"?>
<!-- Generator: Adobe Illustrator 24.0.0, SVG Export Plug-In . SVG Version: 6.00 Build 0)  -->
<svg version="1.1" xmlns="http://www.w3.org/2000/svg" xmlns:xlink="http://www.w3.org/1999/xlink" x="0px" y="0px"
	 viewBox="0 0 512 512" style="enable-background:new 0 0 512 512;" xml:space="preserve">
<style type="text/css">
	.st0{display:none;}
	.st1{display:inline;}
	.st2{fill:#24E900;}
	.st3{fill:#FFFFFF;}
</style>
<g id="Layer_1" class="st0">
	<g class="st1">
		<g>
			<path class="st2" d="M511,1v510H1V1H511 M512,0H0v512h512V0L512,0z"/>
		</g>
		<g>
			<path class="st2" d="M505,7v498H7V7H505 M506,6H6v500h500V6L506,6z"/>
		</g>
	</g>
</g>
<g id="Layer_2">
	<g>
		<g>
			<g>
				<path class="st3" d="M404.5,237.9h62.7l-20.6-82.2c-4.8-19.2-22-32.6-41.8-32.6h-49.4v100.5c0,6.2,3.9,11.3,9.4,13.4l23.5-23.5
					c5.6-5.6,14.7-5.6,20.3,0c5.6,5.6,5.6,14.7,0,20.3L404.5,237.9z"/>
			</g>
		</g>
		<g>
			<g>
				<path class="st3" d="M455.9,295.3H499v-14.4c0-8-6.3-14.4-14.4-14.4H369.8c-23.8,0-43.1-19.2-43.1-43.1V123H298v258.4h28.7
					c0,31.6,25.8,57.4,57.4,57.4s57.4-25.8,57.4-57.4h14.4c23.8,0,43.1-19.2,43.1-43.1V324h-43.1c-8,0-14.4-6.3-14.4-14.4
					C441.6,301.6,447.9,295.3,455.9,295.3z M384.2,410.1c-15.8,0-28.7-12.9-28.7-28.7s12.9-28.7,28.7-28.7s28.7,12.9,28.7,28.7
					S399.9,410.1,384.2,410.1z"/>
			</g>
		</g>
		<g>
			<g>
				<path class="st3" d="M226.2,65.6H52.1C28.3,65.6,9,84.9,9,108.7v229.7c0,23.8,19.3,43.1,43.1,43.1h14.4
					c0,31.7,25.8,57.4,57.4,57.4s57.4-25.8,57.4-57.4h88V108.7C269.3,84.9,250,65.6,226.2,65.6z M123.8,410.1
					c-15.8,0-28.7-12.9-28.7-28.7c0-15.8,12.9-28.7,28.7-28.7s28.7,12.9,28.7,28.7C152.6,397.3,139.7,410.1,123.8,410.1z
					 M236.4,233.7l-59.3,57.4c-9,9-24.5,2.7-24.5-10.2v-14.4H80.8c-7.9,0-14.4-6.4-14.4-14.4v-57.4c0-7.9,6.4-14.4,14.4-14.4h71.8
					v-14.4c0-12.8,15.5-19.2,24.5-10.1l59.3,57.4C242,219,242,228.1,236.4,233.7z"/>
			</g>
		</g>
	</g>
</g>
</svg>
