<?xml version="1.0" encoding="utf-8"?>
<!-- Generator: Adobe Illustrator 24.0.0, SVG Export Plug-In . SVG Version: 6.00 Build 0)  -->
<svg version="1.1" xmlns="http://www.w3.org/2000/svg" xmlns:xlink="http://www.w3.org/1999/xlink" x="0px" y="0px"
	 viewBox="0 0 512 512" style="enable-background:new 0 0 512 512;" xml:space="preserve">
<style type="text/css">
	.st0{display:none;}
	.st1{display:inline;}
	.st2{fill:#24E900;}
	.st3{fill:#FFFFFF;}
</style>
<g id="Layer_1" class="st0">
	<g class="st1">
		<g>
			<path class="st2" d="M511,1v510H1V1H511 M512,0H0v512h512V0L512,0z"/>
		</g>
		<g>
			<path class="st2" d="M505,7v498H7V7H505 M506,6H6v500h500V6L506,6z"/>
		</g>
	</g>
</g>
<g id="Layer_2">
	<g>
		<path class="st3" d="M304.8,117.4h87.7L291.1,16v87.7C291.1,111.3,297.2,117.4,304.8,117.4z"/>
		<path class="st3" d="M345.9,259.1c-67.9,0-123,55.1-123,123s55.1,123,123,123s123-55.1,123-123S413.8,259.1,345.9,259.1z
			 M345.9,369.4c20.9,0,37.8,17,37.8,37.8c0,16.4-10.5,30.5-25.2,35.7v27.4h-25.2v-27.4c-14.7-5.2-25.2-19.2-25.2-35.7h25.2
			c0,7,5.7,12.6,12.6,12.6s12.6-5.7,12.6-12.6c0-7-5.7-12.6-12.6-12.6c-20.9,0-37.8-17-37.8-37.8c0-16.4,10.5-30.4,25.2-35.6v-27.4
			h25.2v27.4c14.7,5.2,25.2,19.2,25.2,35.6h-25.2c0-7-5.7-12.6-12.6-12.6s-12.6,5.7-12.6,12.6C333.3,363.8,338.9,369.4,345.9,369.4z
			"/>
		<path class="st3" d="M335.3,232.2c23.5,0,45.7,5.6,65.2,15.7V144.8h-95.7c-22.6,0-41-18.4-41-41V8H85.9c-22.6,0-41,18.4-41,41
			v384.8c0,22.6,18.4,41,41,41h145.9c-24.7-25.8-39.9-60.7-39.9-99.2C191.9,296.4,256.1,232.2,335.3,232.2z M85.2,118.4h37.2H193
			h37.2c6,0,10.8,4.8,10.8,10.8c0,6-4.8,10.8-10.8,10.8H193h-70.5H85.2c-6,0-10.8-4.8-10.8-10.8C74.5,123.3,79.3,118.4,85.2,118.4z
			 M85.2,161.5h37.2H193h37.2c6,0,10.8,4.8,10.8,10.8c0,6-4.8,10.8-10.8,10.8H193h-70.5H85.2c-6,0-10.8-4.8-10.8-10.8
			C74.5,166.4,79.3,161.5,85.2,161.5z M85.2,226.2c-6,0-10.8-4.8-10.8-10.8c0-6,4.8-10.8,10.8-10.8h37.2H193h37.2
			c6,0,10.8,4.8,10.8,10.8c0,6-4.8,10.8-10.8,10.8H193h-70.5H85.2z"/>
	</g>
</g>
</svg>
