<svg width="23" height="23" viewBox="0 0 23 23" fill="none" xmlns="http://www.w3.org/2000/svg">
<path d="M19.6801 12.4177H17.9014C18.0827 13.0029 18.1817 13.6344 18.1817 14.2926V22.2175C18.1817 22.492 18.1412 22.7554 18.0675 23.0003H21.0081C22.1066 23.0003 23.0002 21.9468 23.0002 20.6519V16.3317C23.0003 14.1736 21.5108 12.4177 19.6801 12.4177Z" fill="white"/>
<path d="M4.81855 14.2928C4.81855 13.6346 4.91761 13.0031 5.09891 12.418H3.32018C1.48943 12.418 0 14.1738 0 16.332V20.6522C0 21.9471 0.893633 23.0006 1.99211 23.0006H4.93279C4.85907 22.7556 4.81855 22.4922 4.81855 22.2178V14.2928Z" fill="white"/>
<path d="M13.5331 10.3787H9.46667C7.63592 10.3787 6.14648 12.1345 6.14648 14.2927V22.2176C6.14648 22.6499 6.44378 23.0004 6.81052 23.0004H16.1892C16.556 23.0004 16.8533 22.65 16.8533 22.2176V14.2927C16.8533 12.1345 15.3638 10.3787 13.5331 10.3787Z" fill="white"/>
<path d="M11.5003 0C9.29854 0 7.50732 2.11159 7.50732 4.70715C7.50732 6.46769 8.3316 8.00528 9.54889 8.81255C10.1263 9.19543 10.7919 9.41424 11.5003 9.41424C12.2086 9.41424 12.8742 9.19543 13.4516 8.81255C14.669 8.00528 15.4932 6.46763 15.4932 4.70715C15.4932 2.11164 13.702 0 11.5003 0Z" fill="white"/>
<path d="M4.48863 4.38696C2.84201 4.38696 1.50244 5.96613 1.50244 7.90725C1.50244 9.84837 2.84201 11.4275 4.48863 11.4275C4.90631 11.4275 5.30405 11.3255 5.66536 11.1422C6.29004 10.8252 6.80512 10.2639 7.12384 9.56092C7.34755 9.06753 7.47482 8.50465 7.47482 7.90725C7.47482 5.96618 6.13524 4.38696 4.48863 4.38696Z" fill="white"/>
<path d="M18.5116 4.38696C16.865 4.38696 15.5254 5.96613 15.5254 7.90725C15.5254 8.5047 15.6527 9.06758 15.8764 9.56092C16.1951 10.264 16.7102 10.8252 17.3348 11.1422C17.6962 11.3255 18.0939 11.4275 18.5116 11.4275C20.1582 11.4275 21.4978 9.84837 21.4978 7.90725C21.4978 5.96613 20.1582 4.38696 18.5116 4.38696Z" fill="white"/>
</svg>
