<?xml version="1.0" encoding="utf-8"?>
<!-- Generator: Adobe Illustrator 24.0.0, SVG Export Plug-In . SVG Version: 6.00 Build 0)  -->
<svg version="1.1" xmlns="http://www.w3.org/2000/svg" xmlns:xlink="http://www.w3.org/1999/xlink" x="0px" y="0px"
	 viewBox="0 0 512 512" style="enable-background:new 0 0 512 512;" xml:space="preserve">
<style type="text/css">
	.st0{display:none;}
	.st1{display:inline;}
	.st2{fill:#24E900;}
	.st3{fill:#FFFFFF;}
</style>
<g id="Layer_1" class="st0">
	<g class="st1">
		<g>
			<path class="st2" d="M511,1v510H1V1H511 M512,0H0v512h512V0L512,0z"/>
		</g>
		<g>
			<path class="st2" d="M505,7v498H7V7H505 M506,6H6v500h500V6L506,6z"/>
		</g>
	</g>
</g>
<g id="Layer_2">
	<g>
		<g>
			<path class="st3" d="M342.5,128.1H434L328.2,22.4v91.5C328.2,121.7,334.6,128.1,342.5,128.1z"/>
		</g>
		<path class="st3" d="M342.5,156.7c-23.6,0-42.8-19.2-42.8-42.8V14H114.2c-23.6,0-42.8,19.2-42.8,42.8v401.4
			c0,23.6,19.2,42.8,42.8,42.8h285.4c23.6,0,42.8-19.2,42.8-42.8V156.7H342.5z M181,228.7c38.3,0,69.5,31.2,69.5,69.5
			c0,30.2-19.4,55.9-46.3,65.5v50.3h-46.3v-50.3c-27-9.6-46.3-35.3-46.3-65.5h46.3c0,12.8,10.4,23.2,23.2,23.2
			c12.8,0,23.2-10.4,23.2-23.2c0-12.8-10.4-23.2-23.2-23.2c-38.3,0-69.5-31.2-69.5-69.5c0-30.2,19.4-55.9,46.3-65.5V89.7h46.3V140
			c27,9.6,46.3,35.3,46.3,65.5h-46.3c0-12.8-10.4-23.2-23.2-23.2c-12.8,0-23.2,10.4-23.2,23.2C157.9,218.3,168.3,228.7,181,228.7z
			 M397.3,456.1H284.9c-6.2,0-11.2-5-11.2-11.2c0-6.2,5-11.2,11.2-11.2h112.4c6.2,0,11.2,5,11.2,11.2
			C408.5,451.1,403.5,456.1,397.3,456.1z M397.3,411.2H284.9c-6.2,0-11.2-5-11.2-11.2s5-11.2,11.2-11.2h112.4
			c6.2,0,11.2,5,11.2,11.2S403.5,411.2,397.3,411.2z M397.3,366.2H284.9c-6.2,0-11.2-5-11.2-11.2s5-11.2,11.2-11.2h112.4
			c6.2,0,11.2,5,11.2,11.2S403.5,366.2,397.3,366.2z"/>
	</g>
</g>
</svg>
