<?xml version="1.0" encoding="utf-8"?>
<!-- Generator: Adobe Illustrator 24.0.0, SVG Export Plug-In . SVG Version: 6.00 Build 0)  -->
<svg version="1.1" xmlns="http://www.w3.org/2000/svg" xmlns:xlink="http://www.w3.org/1999/xlink" x="0px" y="0px"
	 viewBox="0 0 512 512" style="enable-background:new 0 0 512 512;" xml:space="preserve">
<style type="text/css">
	.st0{display:none;}
	.st1{display:inline;}
	.st2{fill:#24E900;}
	.st3{fill:#FFFFFF;}
</style>
<g id="Layer_1" class="st0">
	<g class="st1">
		<g>
			<path class="st2" d="M511,1v510H1V1H511 M512,0H0v512h512V0L512,0z"/>
		</g>
		<g>
			<path class="st2" d="M505,7v498H7V7H505 M506,6H6v500h500V6L506,6z"/>
		</g>
	</g>
</g>
<g id="Layer_2">
	<g>
		<g>
			<g>
				<rect x="226.9" y="356.8" class="st3" width="62.2" height="90.4"/>
			</g>
		</g>
		<g>
			<g>
				<rect x="317.2" y="356.8" class="st3" width="62.2" height="90.4"/>
			</g>
		</g>
		<g>
			<g>
				<path class="st3" d="M489.2,149l-15.1-6c0,0,0,0,0,0L263.2,58.6c-3.4-1.3-7.1-1.3-10.4,0L41.9,143c0,0,0,0,0,0l-15.1,6
					c-7.2,2.9-10.7,11.1-7.8,18.3c2.3,5.8,8.1,9.2,14.1,8.8v0.7l219.7-87.9c3.4-1.3,7.1-1.3,10.4,0l219.7,87.9v-0.7c0.3,0,0.7,0,1,0
					c5.6,0,10.9-3.3,13.1-8.8C499.9,160.1,496.4,151.9,489.2,149z"/>
			</g>
		</g>
		<g>
			<g>
				<path class="st3" d="M478.7,205.4L258,117.1L37.3,205.4c-1.4,0.6-2.8,0.9-4.2,1v226.8c0,7.8,6.3,14.1,14.1,14.1h61.2V342.8
					c0-7.8,6.3-14.1,14.1-14.1h90.4h90.4h90.4c7.8,0,14.1,6.3,14.1,14.1v104.4h61.2c7.8,0,14.1-6.3,14.1-14.1V206.4
					C481.5,206.3,480.1,205.9,478.7,205.4z M363.4,221.3H152.6c-7.8,0-14.1-6.3-14.1-14.1s6.3-14.1,14.1-14.1h210.9
					c7.8,0,14.1,6.3,14.1,14.1S371.2,221.3,363.4,221.3z"/>
			</g>
		</g>
		<g>
			<g>
				<rect x="136.5" y="356.8" class="st3" width="62.2" height="90.4"/>
			</g>
		</g>
	</g>
</g>
</svg>
