<?xml version="1.0" encoding="utf-8"?>
<!-- Generator: Adobe Illustrator 24.0.0, SVG Export Plug-In . SVG Version: 6.00 Build 0)  -->
<svg version="1.1" xmlns="http://www.w3.org/2000/svg" xmlns:xlink="http://www.w3.org/1999/xlink" x="0px" y="0px"
	 viewBox="0 0 512 512" style="enable-background:new 0 0 512 512;" xml:space="preserve">
<style type="text/css">
	.st0{fill:#24E900;}
	.st1{fill:none;stroke:#FFFFFF;stroke-width:10.6745;stroke-miterlimit:10;}
	.st2{fill:#FFFFFF;}
</style>
<g id="Layer_1">
	<g>
		<g>
			<path class="st0" d="M511,1v510H1V1H511 M512,0H0v512h512V0L512,0z"/>
		</g>
		<g>
			<path class="st0" d="M505,7v498H7V7H505 M506,6H6v500h500V6L506,6z"/>
		</g>
	</g>
</g>
<g id="Layer_2">
	<g>
		<g>
			<line class="st1" x1="319.5" y1="407.2" x2="272.2" y2="250"/>
			<line class="st1" x1="208.3" y1="250" x2="191.8" y2="409.2"/>
			<line class="st1" x1="282.3" y1="280.5" x2="166.4" y2="280.5"/>
			<line class="st1" x1="249.1" y1="343.3" x2="198.3" y2="343.3"/>
			<line class="st1" x1="353.2" y1="343.3" x2="300" y2="343.3"/>
			<line class="st1" x1="310.7" y1="375.8" x2="253.3" y2="375.8"/>
			<line class="st1" x1="243.2" y1="278.5" x2="255.7" y2="406.2"/>
			<polygon class="st1" points="67.6,406.2 384,406.2 305.3,251 138.6,252 			"/>
			<line class="st1" x1="127.9" y1="407.2" x2="175.2" y2="250"/>
			<line class="st1" x1="336.7" y1="311.9" x2="110.2" y2="311.9"/>
			<line class="st1" x1="138" y1="375.8" x2="80.6" y2="375.8"/>
		</g>
		<g>
			<g>
				<path class="st2" d="M406.8,116.1l-9.6-9.6L445.7,58l-18.1-18.1c-26.1,26.2-52.2,52.4-78.3,78.6c-0.9,0.9-1.6,2.4-1.8,3.6
					c-1.4,9.8-2.6,19.6-3.8,29.4c-0.9,6.9-1.8,13.8-2.7,21.1c1.4-0.1,2.3-0.1,3.2-0.2c15.8-2.2,31.6-4.5,47.4-6.8
					c1.4-0.2,2.8-1.1,3.8-2.1c12.5-12.4,24.9-24.9,37.3-37.3c13.5-13.5,27-27.1,40.5-40.6l-18-18L406.8,116.1z"/>
				<path class="st2" d="M445.7,58l9.6,9.6l9.6-9.6l18,18c4.2-4.2,8.3-8.4,12.5-12.5c5.1-5.1,5.2-10.9,0.1-16c-10-10-20-20-30.1-30
					c-4.7-4.6-10.7-4.6-15.3,0c-4.3,4.3-8.6,8.6-12.8,12.9l18.1,18.1L445.7,58z"/>
			</g>
			<g>
				<path class="st2" d="M408.3,390.1c0,44.4-36.3,80.7-80.7,80.7H120.2c-44.4,0-80.7-36.3-80.7-80.7V182.7
					c0-44.4,36.3-80.7,80.7-80.7h150.7V75.8H105.5c-50.7,0-92.2,41.5-92.2,92.2v236.8c0,50.7,41.5,92.2,92.2,92.2h236.8
					c50.7,0,92.2-41.5,92.2-92.2V244.2h-26.2V390.1z"/>
			</g>
		</g>
	</g>
</g>
</svg>
