<?xml version="1.0" encoding="utf-8"?>
<!-- Generator: Adobe Illustrator 24.0.0, SVG Export Plug-In . SVG Version: 6.00 Build 0)  -->
<svg version="1.1" xmlns="http://www.w3.org/2000/svg" xmlns:xlink="http://www.w3.org/1999/xlink" x="0px" y="0px"
	 viewBox="0 0 512 512" style="enable-background:new 0 0 512 512;" xml:space="preserve">
<style type="text/css">
	.st0{display:none;}
	.st1{display:inline;}
	.st2{fill:#24E900;}
	.st3{fill:none;stroke:#FFFFFF;stroke-width:6.7227;stroke-miterlimit:10;}
	.st4{fill:#FFFFFF;}
</style>
<g id="Layer_1" class="st0">
	<g class="st1">
		<g>
			<path class="st2" d="M511,1v510H1V1H511 M512,0H0v512h512V0L512,0z"/>
		</g>
		<g>
			<path class="st2" d="M505,7v498H7V7H505 M506,6H6v500h500V6L506,6z"/>
		</g>
	</g>
</g>
<g id="Layer_2">
	<g>
		<g>
			<g>
				<line class="st3" x1="301.2" y1="424.2" x2="261.2" y2="350.5"/>
				<line class="st3" x1="207.2" y1="350.5" x2="193.1" y2="425.2"/>
				<line class="st3" x1="269.7" y1="364.8" x2="171.6" y2="364.8"/>
				<line class="st3" x1="241.7" y1="394.3" x2="198.6" y2="394.3"/>
				<line class="st3" x1="329.7" y1="394.3" x2="284.7" y2="394.3"/>
				<line class="st3" x1="293.7" y1="409.5" x2="245.2" y2="409.5"/>
				<line class="st3" x1="236.7" y1="363.9" x2="247.2" y2="423.8"/>
				<polygon class="st3" points="88.1,423.8 355.7,423.8 289.2,351 148.1,351.4 				"/>
				<line class="st3" x1="139.1" y1="424.2" x2="179.1" y2="350.5"/>
				<line class="st3" x1="315.7" y1="379.5" x2="124.1" y2="379.5"/>
				<line class="st3" x1="147.6" y1="409.5" x2="99.1" y2="409.5"/>
			</g>
			<g>
				<ellipse class="st4" cx="173.5" cy="225.6" rx="27.7" ry="27.1"/>
				<path class="st4" d="M85,236.4c0,14.4,3.7,28.6,10.6,41.2l73.1,129.5c1,1.7,2.8,2.8,4.8,2.8s3.9-1.1,4.8-2.8l73.1-129.4
					c7-12.6,10.6-26.9,10.6-41.2c0-47.8-39.7-86.7-88.5-86.7S85,188.6,85,236.4z M112.6,236.4c0-32.9,27.3-59.6,60.9-59.6
					s60.9,26.7,60.9,59.6c0,14.9-5.6,28.5-14.9,38.9c-3.6-2.8-7.4-5.6-8.2-6.1c-8.8-5.1-22.6-11.2-37.8-11.2s-29,6.1-37.8,11.2
					c-0.8,0.4-4.5,3.3-8.2,6.1C118.3,264.9,112.6,251.3,112.6,236.4z"/>
			</g>
		</g>
		<g>
			<g>
				<path class="st4" d="M407,116.5l-9.6-9.6l48.8-48.8L428,39.9c-26.3,26.3-52.5,52.7-78.8,79.1c-0.9,0.9-1.6,2.4-1.8,3.7
					c-1.4,9.9-2.6,19.7-3.9,29.6c-0.9,6.9-1.8,13.9-2.7,21.2c1.4-0.1,2.3-0.1,3.2-0.2c15.9-2.3,31.8-4.5,47.7-6.9
					c1.4-0.2,2.8-1.1,3.8-2.1c12.5-12.5,25-25,37.5-37.5c13.6-13.6,27.2-27.3,40.8-40.9l-18.1-18.1L407,116.5z"/>
				<path class="st4" d="M446.2,58.1l9.6,9.6l9.6-9.6l18.1,18.1c4.2-4.2,8.4-8.4,12.6-12.6c5.1-5.2,5.2-11,0.1-16.1
					c-10.1-10.1-20.1-20.2-30.3-30.2c-4.7-4.7-10.7-4.7-15.4,0c-4.3,4.3-8.6,8.6-12.9,13l18.2,18.2L446.2,58.1z"/>
			</g>
			<g>
				<path class="st4" d="M408.5,392.3c0,44.7-36.6,81.2-81.2,81.2H118.6c-44.7,0-81.2-36.6-81.2-81.2V183.6
					c0-44.7,36.6-81.2,81.2-81.2h151.7V76H103.8c-51,0-92.8,41.8-92.8,92.8v238.3c0,51,41.8,92.8,92.8,92.8h238.3
					c51,0,92.8-41.8,92.8-92.8V245.4h-26.4V392.3z"/>
			</g>
		</g>
	</g>
</g>
</svg>
