<?xml version="1.0" encoding="utf-8"?>
<!-- Generator: Adobe Illustrator 24.0.0, SVG Export Plug-In . SVG Version: 6.00 Build 0)  -->
<svg version="1.1" xmlns="http://www.w3.org/2000/svg" xmlns:xlink="http://www.w3.org/1999/xlink" x="0px" y="0px"
	 viewBox="0 0 512 512" style="enable-background:new 0 0 512 512;" xml:space="preserve">
<style type="text/css">
	.st0{display:none;}
	.st1{display:inline;}
	.st2{fill:#24E900;}
	.st3{fill:#FFFFFF;}
</style>
<g id="Layer_1" class="st0">
	<g class="st1">
		<g>
			<path class="st2" d="M511,1v510H1V1H511 M512,0H0v512h512V0L512,0z"/>
		</g>
		<g>
			<path class="st2" d="M505,7v498H7V7H505 M506,6H6v500h500V6L506,6z"/>
		</g>
	</g>
</g>
<g id="Layer_2">
	<g>
		<path class="st3" d="M505.2,268.2l-33-5.5c1.6,102.5-68.9,186.5-159.8,211.2c-95,23.8-196.7-20.2-243.8-106.1
			c-0.2-0.4-0.4-0.7-0.6-1.1c-19-35.1-25.3-69-25.7-97.8l0.2,0c-2-122.4,99.1-218.5,214.9-218.5c103.1,0,158.1,71.7,163.9,75.8
			l-23.9,23.9l85.3,14.2l-14.2-85.3L444.6,103c-6-4.2-68.6-84.5-187.3-85h-1C121.9,18,14.1,124.5,9.7,257.4l-0.3,0
			c-1,35.7,5.2,80,30.5,126.3c0.2,0.3,0.3,0.6,0.5,0.9c66.4,121.1,216.9,164.2,337.7,99.3l-0.3-0.8
			C453.4,441.2,504.4,360.7,505.2,268.2z"/>
		<g id="Fertilizer_2_">
			<g id="Glyph_2_">
				<path class="st3" d="M281.4,301.9c12.7-6.8,20.9-25.5,21.2-26.3c1-2.4-0.2-5.1-2.5-6c-0.3-0.1-0.6-0.2-0.9-0.3
					c-0.8-0.2-20.9-3.7-33.6,3.1c-3.4,1.8-6.3,4.4-8.5,7.6c-2.2-3.2-5.1-5.8-8.5-7.6c-12.7-6.8-32.8-3.3-33.6-3.1
					c-2.5,0.5-4.1,2.9-3.6,5.4c0.1,0.3,0.1,0.6,0.3,0.9c0.3,0.8,8.5,19.5,21.2,26.3c7,3.8,14,3.5,20,1.4v10.9
					c-11.7,1.8-20.9,10.9-22.9,22.5h-9.1c-2.5,0-4.5,1.9-4.6,4.4c0,2.5,1.9,4.5,4.4,4.6c0.1,0,0.1,0,0.2,0h73.1
					c2.5,0,4.5-1.9,4.6-4.4c0-2.5-1.9-4.5-4.4-4.6c-0.1,0-0.1,0-0.2,0h-9.9c-1.9-11.3-10.7-20.3-22-22.4v-11
					C267.8,305.1,275.2,305.2,281.4,301.9z"/>
				<path class="st3" d="M257.3,113c-21.6,0-59,31.9-82.7,56.2c-1.8,1.8-1.7,4.7,0.1,6.5c0.9,0.8,2,1.3,3.2,1.3h158.6
					c2.5,0,4.6-2,4.6-4.6c0-1.2-0.5-2.4-1.3-3.2C315.5,144.9,277.3,113,257.3,113z M216.2,167.8c-2.5,0-4.6-2-4.6-4.6s2-4.6,4.6-4.6
					c2.5,0,4.6,2,4.6,4.6S218.7,167.8,216.2,167.8z M234.4,149.5c-2.5,0-4.6-2-4.6-4.6c0-2.5,2-4.6,4.6-4.6c2.5,0,4.6,2,4.6,4.6
					C239,147.5,236.9,149.5,234.4,149.5z M243.6,167.8c-2.5,0-4.6-2-4.6-4.6s2-4.6,4.6-4.6c2.5,0,4.6,2,4.6,4.6
					S246.1,167.8,243.6,167.8z M248.1,131.2c-2.5,0-4.6-2-4.6-4.6c0-2.5,2-4.6,4.6-4.6c2.5,0,4.6,2,4.6,4.6
					C252.7,129.2,250.6,131.2,248.1,131.2z M257.3,144.9c-2.5,0-4.6-2-4.6-4.6c0-2.5,2-4.6,4.6-4.6c2.5,0,4.6,2,4.6,4.6
					C261.8,142.9,259.8,144.9,257.3,144.9z M266.4,167.8c-2.5,0-4.6-2-4.6-4.6s2-4.6,4.6-4.6c2.5,0,4.6,2,4.6,4.6
					S268.9,167.8,266.4,167.8z M271,135.8c-2.5,0-4.6-2-4.6-4.6s2-4.6,4.6-4.6c2.5,0,4.6,2,4.6,4.6S273.5,135.8,271,135.8z
					 M280.1,154.1c-2.5,0-4.6-2-4.6-4.6c0-2.5,2-4.6,4.6-4.6c2.5,0,4.6,2,4.6,4.6C284.7,152,282.6,154.1,280.1,154.1z M298.4,167.8
					c-2.5,0-4.6-2-4.6-4.6s2-4.6,4.6-4.6c2.5,0,4.6,2,4.6,4.6S300.9,167.8,298.4,167.8z"/>
				<path class="st3" d="M380.6,291.1c0-11.8-4.1-38-7.8-59.4c7.5-0.7,13-7.4,12.3-15c-0.3-2.9-1.5-5.6-3.4-7.8
					c2.4-2.7,3.7-6.2,3.5-9.8c-0.3-7.3-6.6-13-14-13H138.5c-5,0-9.1,4.1-9.1,9.1l0,0c0,5,4.1,9.1,9.1,9.1h150.7c2.5,0,4.6,2,4.6,4.6
					l0,0c0,2.5-2,4.6-4.6,4.6H134c-2.5,0-4.6,2-4.6,4.6c0,7,5.3,12.9,12.4,13.6c-3.7,21.5-7.8,47.7-7.8,59.4
					c0,47.5,2.9,66.3,4.2,72.2c-1.1,2.1-8.8,12-8.8,14.6c0,10.9,11.3,17.9,21.4,13.9c76.4,16.6,128.4,18.3,213,0
					c9.9,3.9,21.4-3,21.4-13.9c0-2.5-7.6-12.4-8.8-14.6C377.6,357.3,380.6,338.5,380.6,291.1z M277.8,368.7h-41.1
					c-34.1,0-61.7-27.6-61.7-61.7s27.6-61.7,61.7-61.7h41.1c34.1,0,61.7,27.6,61.7,61.7S311.9,368.7,277.8,368.7z M353,213.4h-36.4
					c-2.5,0-4.6-2-4.6-4.6l0,0c0-2.5,2-4.6,4.6-4.6h36.5c2.5,0,4.6,2,4.6,4.6c0,0.1,0,0.2,0,0.3C357.5,211.6,355.4,213.5,353,213.4z
					"/>
			</g>
		</g>
	</g>
</g>
</svg>
