<?xml version="1.0" encoding="utf-8"?>
<!-- Generator: Adobe Illustrator 24.0.0, SVG Export Plug-In . SVG Version: 6.00 Build 0)  -->
<svg version="1.1" xmlns="http://www.w3.org/2000/svg" xmlns:xlink="http://www.w3.org/1999/xlink" x="0px" y="0px"
	 viewBox="0 0 512 512" style="enable-background:new 0 0 512 512;" xml:space="preserve">
<style type="text/css">
	.st0{display:none;}
	.st1{display:inline;}
	.st2{fill:#24E900;}
	.st3{fill:#FFFFFF;}
</style>
<g id="Layer_1" class="st0">
	<g class="st1">
		<g>
			<path class="st2" d="M511,1v510H1V1H511 M512,0H0v512h512V0L512,0z"/>
		</g>
		<g>
			<path class="st2" d="M505,7v498H7V7H505 M506,6H6v500h500V6L506,6z"/>
		</g>
	</g>
</g>
<g id="Layer_2">
	<g>
		<path class="st3" d="M103.7,214c18.6-4.2,41-8.4,66.2-11.6v-41.2c0-48,39-87,87-87s87,39,87,87v41.2c25.2,3.2,47.5,7.4,66.2,11.6
			v-52.8C410.1,76.7,341.3,8,256.9,8S103.7,76.7,103.7,161.2L103.7,214z"/>
		<path class="st3" d="M256.9,315.5c-9.9,0-18,8.1-18,18c0,9.9,8.1,18,18,18c9.9,0,18-8.1,18-18
			C274.9,323.6,266.8,315.5,256.9,315.5L256.9,315.5z"/>
		<path class="st3" d="M256.9,225.6c-90.8,0-166.4,20.6-192.3,28.6v218.3c25.9,8,101.7,28.6,192.3,28.6
			c90.8,0,166.4-20.6,192.3-28.6V254.2C423.2,246.2,347.5,225.6,256.9,225.6L256.9,225.6z M271.3,378.2v47.4h-28.9v-47.4
			c-18.8-6.1-32.5-23.8-32.5-44.6c0-25.9,21.1-46.9,46.9-46.9s46.9,21.1,46.9,46.9C303.8,354.4,290.2,372.1,271.3,378.2z"/>
	</g>
</g>
</svg>
