<?xml version="1.0" encoding="utf-8"?>
<!-- Generator: Adobe Illustrator 24.0.0, SVG Export Plug-In . SVG Version: 6.00 Build 0)  -->
<svg version="1.1" xmlns="http://www.w3.org/2000/svg" xmlns:xlink="http://www.w3.org/1999/xlink" x="0px" y="0px"
	 viewBox="0 0 512 512" style="enable-background:new 0 0 512 512;" xml:space="preserve">
<style type="text/css">
	.st0{display:none;}
	.st1{display:inline;}
	.st2{fill:#24E900;}
	.st3{fill:#FFFFFF;}
</style>
<g id="Layer_1" class="st0">
	<g class="st1">
		<g>
			<path class="st2" d="M511,1v510H1V1H511 M512,0H0v512h512V0L512,0z"/>
		</g>
		<g>
			<path class="st2" d="M505,7v498H7V7H505 M506,6H6v500h500V6L506,6z"/>
		</g>
	</g>
</g>
<g id="Layer_2">
	<g>
		<path class="st3" d="M464.5,250.5c1.9,118.3-95.8,211.2-207.6,211.2c-0.4,0-0.8,0-1.1,0c-41.1-0.2-74.2-12.2-99.3-26.5l-19.3,25.3
			c29.4,17.2,69.4,32.4,119.8,32.6c0.3,0,0.7,0,1,0c131.9,0,237.2-106.2,238.4-237.2L464.5,250.5z"/>
		<path class="st3" d="M256.9,45.3c99.6,0,152.8,69.3,158.4,73.3l-23.1,23.1l82.5,13.7L460.9,73l-23.1,23.1
			c-5.8-4-66.3-81.7-181-82.1h-1C124,14,18.6,120.1,17.4,251.2l31.9,5.3C47.4,138.2,145,45.3,256.9,45.3z"/>
		<g>
			<g>
				<path class="st3" d="M347.6,280c-16.3-5.9-34.4-4.5-49.6,3.7c-0.2,0.1-59.7,27-59.7,27c-4.2,3.2-9.1,4.8-14.2,4.8h-37.5
					c-4.7,0-8.4-3.8-8.4-8.4c0-4.6,3.8-8.4,8.4-8.4H224c11.7,0,12-24.1,0.5-25l-52.2-0.6c-9.2-0.1-18.4-6-28.1-6.2
					c-9.9-0.2-19.2,2.3-27.5,7.7c-11.6,7.5-19.5,19.4-24.8,31.9l28.2,71.3h81.2c7.3,0,14.6-1.9,20.9-5.6l126-72.1
					c3.8-3.2,6.8-7,5.5-12.9C353,284,350.7,281.1,347.6,280L347.6,280z"/>
				<path class="st3" d="M39.6,315.2l38.5,97.2l30.9-17l-38.5-97.2L39.6,315.2z"/>
			</g>
			<g>
				<path class="st3" d="M271.6,81c-41.3,0-74.8,34-74.8,75.8s33.5,75.8,74.8,75.8s74.8-34,74.8-75.8C346.4,115,312.9,81,271.6,81
					L271.6,81z M280.1,194.7v12.6h-17.3v-11.5c-6.7-1-12.6-3.7-17.8-7.7l6.2-17.4c5,4,12.2,7.6,18.4,7.6c4.7,0,7.8-2.2,7.8-5.5
					c0-2.2-0.7-4.8-9.1-8.2c-10.5-4.2-21.3-10.2-21.3-23.9c0-10.3,6.3-18.6,16.5-21.8v-12.2h17.2v11.1c5.2,0.8,10.8,3.4,15.4,6.3
					l-6.5,17.1c-4.6-3.1-11.2-6.1-16.5-6.1c-5.8,0-6.4,3-6.4,4.2c0,2,0.7,3.7,10.3,7.7c9.4,3.9,20.2,10.2,20.2,25
					C297.3,182.5,290.6,191.3,280.1,194.7z"/>
			</g>
		</g>
	</g>
</g>
</svg>
