<?xml version="1.0" encoding="utf-8"?>
<!-- Generator: Adobe Illustrator 24.0.0, SVG Export Plug-In . SVG Version: 6.00 Build 0)  -->
<svg version="1.1" xmlns="http://www.w3.org/2000/svg" xmlns:xlink="http://www.w3.org/1999/xlink" x="0px" y="0px"
	 viewBox="0 0 512 512" style="enable-background:new 0 0 512 512;" xml:space="preserve">
<style type="text/css">
	.st0{display:none;}
	.st1{display:inline;}
	.st2{fill:#24E900;}
	.st3{fill:#FFFFFF;}
</style>
<g id="Layer_1" class="st0">
	<g class="st1">
		<g>
			<path class="st2" d="M511,1v510H1V1H511 M512,0H0v512h512V0L512,0z"/>
		</g>
		<g>
			<path class="st2" d="M505,7v498H7V7H505 M506,6H6v500h500V6L506,6z"/>
		</g>
	</g>
</g>
<g id="Layer_2">
	<g>
		<path class="st3" d="M408.3,237.8h62.8l-20.6-82.4c-4.8-19.2-22-32.7-41.9-32.7h-49.5v100.7c0,6.2,4,11.4,9.4,13.4l23.6-23.6
			c5.6-5.6,14.7-5.6,20.3,0c5.6,5.6,5.6,14.7,0,20.3L408.3,237.8z"/>
		<path class="st3" d="M459.8,295.4H503V281c0-8.1-6.3-14.4-14.4-14.4H373.5c-23.9,0-43.2-19.3-43.2-43.2V122.8h-28.8v258.9h28.8
			c0,31.6,25.9,57.5,57.5,57.5s57.5-25.9,57.5-57.5h14.4c23.9,0,43.2-19.3,43.2-43.2v-14.4h-43.2c-8.1,0-14.4-6.3-14.4-14.4
			C445.5,301.7,451.8,295.4,459.8,295.4z M387.9,410.5c-15.8,0-28.8-12.9-28.8-28.8s12.9-28.8,28.8-28.8s28.8,12.9,28.8,28.8
			S403.7,410.5,387.9,410.5z"/>
		<path class="st3" d="M229.7,65.2H55.2C31.3,65.2,12,84.6,12,108.4v230.2c0,23.8,19.3,43.2,43.2,43.2h14.4
			c0,31.7,25.8,57.5,57.5,57.5s57.5-25.8,57.5-57.5h88.2V108.4C272.8,84.6,253.5,65.2,229.7,65.2z M127.1,410.5
			c-15.9,0-28.8-12.9-28.8-28.8s12.9-28.8,28.8-28.8s28.8,12.9,28.8,28.8S142.9,410.5,127.1,410.5z M143.9,312.8
			c-58.7,0-106.4-47.7-106.4-106.4c0-56.5,44.2-102.8,99.7-106.1v44.5c-31.1,3.3-55.4,29.7-55.4,61.6c0,34.2,27.8,62.1,62.1,62.1
			c14.7,0,28.3-5.1,38.9-13.7l31.4,31.4C195.4,302.8,170.9,312.8,143.9,312.8z M223.6,276.7l-31.4-31.4c7.3-9,12.1-20.1,13.3-32.3
			H250C248.6,237.4,239,259.5,223.6,276.7z M205.5,199.8c-3-28.9-26.1-52-55-55v-44.5c53.4,3.2,96.3,46.1,99.5,99.5H205.5z"/>
	</g>
</g>
</svg>
