<?xml version="1.0" encoding="utf-8"?>
<!-- Generator: Adobe Illustrator 24.0.0, SVG Export Plug-In . SVG Version: 6.00 Build 0)  -->
<svg version="1.1" xmlns="http://www.w3.org/2000/svg" xmlns:xlink="http://www.w3.org/1999/xlink" x="0px" y="0px"
	 viewBox="0 0 512 512" style="enable-background:new 0 0 512 512;" xml:space="preserve">
<style type="text/css">
	.st0{display:none;}
	.st1{display:inline;}
	.st2{fill:#24E900;}
	.st3{fill:#FFFFFF;}
</style>
<g id="Layer_1" class="st0">
	<g class="st1">
		<g>
			<path class="st2" d="M511,1v510H1V1H511 M512,0H0v512h512V0L512,0z"/>
		</g>
		<g>
			<path class="st2" d="M505,7v498H7V7H505 M506,6H6v500h500V6L506,6z"/>
		</g>
	</g>
</g>
<g id="Layer_2">
	<g>
		<g>
			<path class="st3" d="M308.1,209.6c0.8-4.4-2.3-8.5-6.8-9.1c-1-0.2-12.4-1.8-27.3-3.6c-11.4-30.8-21.2-46-39.6-46
				c-11.1,0-19.2,5.5-24.4,10.9c-5.2-5.4-13.4-10.9-24.4-10.9c-18.4,0-28.2,15.2-39.8,46c-14.8,1.8-25.6,3.4-26.6,3.6
				c-4.6,0.7-7.7,4.7-6.8,9.1c0.5,4.4,4.6,7.5,9.1,6.8c1.6,0,53.1-8,88.5-8c34.6,0,87.4,8,89,8C303.4,217.2,307.4,214.1,308.1,209.6
				L308.1,209.6z"/>
			<path class="st3" d="M365.3,249.2c-4.5,0-8.1,3.6-8.1,8.1v32.6c0,10.6-6.8,19.7-16.3,23v-55.6c0-4.5-3.6-8.1-8.1-8.1
				c-4.5,0-8.1,3.6-8.1,8.1v55.6c-9.5-3.4-16.3-12.4-16.3-23v-32.6c0-4.5-3.6-8.1-8.1-8.1c-4.5,0-8.1,3.6-8.1,8.1v32.6
				c0,19.7,14,36.1,32.6,39.9v17.1c-4.5,0-8.1,3.6-8.1,8.1v65.7c0,4.5,3.6,8.1,8.1,8.1h16.3c4.5,0,8.1-3.6,8.1-8.1v-65.7
				c0-4.5-3.6-8.1-8.1-8.1v-17.1c18.6-3.8,32.6-20.2,32.6-39.9v-32.6C373.4,252.8,369.8,249.2,365.3,249.2z"/>
			<path class="st3" d="M267,363.2v65.7h33.1V372c-8-5.5-18-8.8-28.3-8.8H267z"/>
			<path class="st3" d="M152.9,363.2h-4.9c-22.5,0-42.5,15.2-48,37l-4.5,18.6c-0.6,2.4-0.1,5,1.5,7c1.5,2,3.9,3.1,6.4,3.1h49.4
				V363.2z"/>
			<path class="st3" d="M250.7,363.2c-3.8,18.6-21.1,32.6-40.7,32.6s-36.9-14-40.7-32.6v65.7h81.5V363.2z"/>
			<path class="st3" d="M185.5,342.4v12.6c0,13.5,10.9,24.4,24.4,24.4c13.5,0,24.4-10.9,24.4-24.4v-12.6c-7.7,2.7-15.8,4.5-24.4,4.5
				C201.3,346.9,193.2,345.1,185.5,342.4z"/>
			<path class="st3" d="M267,228.9c-17.7-2-40-4.1-57-4.1c-17,0-39.3,2.1-57,4.1v44.7h1.1c8.7-0.2,16.1-3.7,24-7.4
				c8.9-4.2,19-8.9,32-8.9c13,0,23.1,4.7,32,8.9c8,3.7,15.5,7.3,24.6,7.4h0.5V228.9z"/>
			<path class="st3" d="M264.4,289.7c-11.7-0.6-21.1-4.8-29.4-8.7c-8.1-3.8-15.7-7.4-25.1-7.4s-17,3.6-25.1,7.4
				c-8.3,3.9-17.7,8.2-29.4,8.8c7,23.6,28.6,40.9,54.4,40.9C235.8,330.6,257.4,313.3,264.4,289.7z"/>
		</g>
		<g>
			<g>
				<path class="st3" d="M406.8,116.3l-9.5-9.5l48.4-48.4l-18-18c-26,26.1-52.1,52.2-78.1,78.4c-0.9,0.9-1.6,2.4-1.8,3.6
					c-1.4,9.8-2.6,19.6-3.8,29.3c-0.9,6.9-1.8,13.8-2.7,21c1.4-0.1,2.3-0.1,3.2-0.2c15.8-2.2,31.5-4.5,47.3-6.8
					c1.4-0.2,2.8-1.1,3.8-2.1c12.4-12.4,24.8-24.8,37.2-37.2c13.5-13.5,26.9-27,40.4-40.5l-18-18L406.8,116.3z"/>
				<path class="st3" d="M445.7,58.4l9.5,9.5l9.5-9.5l17.9,17.9c4.2-4.2,8.3-8.3,12.5-12.5c5.1-5.1,5.2-10.9,0.1-16
					c-10-10-20-20-30-29.9c-4.7-4.6-10.6-4.6-15.3,0c-4.3,4.3-8.5,8.6-12.8,12.8l18,18L445.7,58.4z"/>
			</g>
			<g>
				<path class="st3" d="M408.3,389.5c0,44.3-36.2,80.5-80.5,80.5H121.1c-44.3,0-80.5-36.2-80.5-80.5V182.8
					c0-44.3,36.2-80.5,80.5-80.5h150.3V76.1h-165c-50.6,0-91.9,41.4-91.9,91.9v236.2c0,50.6,41.4,91.9,91.9,91.9h236.2
					c50.6,0,91.9-41.4,91.9-91.9V244h-26.1V389.5z"/>
			</g>
		</g>
	</g>
</g>
</svg>
