<?xml version="1.0" encoding="utf-8"?>
<!-- Generator: Adobe Illustrator 24.0.0, SVG Export Plug-In . SVG Version: 6.00 Build 0)  -->
<svg version="1.1" xmlns="http://www.w3.org/2000/svg" xmlns:xlink="http://www.w3.org/1999/xlink" x="0px" y="0px"
	 viewBox="0 0 512 512" style="enable-background:new 0 0 512 512;" xml:space="preserve">
<style type="text/css">
	.st0{display:none;}
	.st1{display:inline;}
	.st2{fill:#24E900;}
	.st3{fill:#FFFFFF;}
</style>
<g id="Layer_1" class="st0">
	<g class="st1">
		<g>
			<path class="st2" d="M511,1v510H1V1H511 M512,0H0v512h512V0L512,0z"/>
		</g>
		<g>
			<path class="st2" d="M505,7v498H7V7H505 M506,6H6v500h500V6L506,6z"/>
		</g>
	</g>
</g>
<g id="Layer_2">
	<g>
		<path class="st3" d="M344.6,123h93.8L330,14.6v93.8C330,116.4,336.5,123,344.6,123z"/>
		<polygon class="st3" points="225.7,400.8 253.6,400.8 239.6,363 		"/>
		<path class="st3" d="M344.6,152.2c-24.2,0-43.9-19.7-43.9-43.9V6h-190C86.5,6,66.8,25.7,66.8,49.9v411.3
			c0,24.2,19.7,43.9,43.9,43.9h292.4c24.2,0,43.9-19.7,43.9-43.9v-309H344.6z M305.1,191.4h79.8c4.4,0,8,3.4,8,7.6
			c0,4.2-3.6,7.6-8,7.6h-79.8c-4.4,0-8-3.4-8-7.6C297.2,194.8,300.7,191.4,305.1,191.4z M305.1,222h79.8c4.4,0,8,3.4,8,7.6
			c0,4.2-3.6,7.6-8,7.6h-79.8c-4.4,0-8-3.4-8-7.6C297.2,225.4,300.7,222,305.1,222z M305.1,252.5h79.8c4.4,0,8,3.4,8,7.6
			c0,4.2-3.6,7.6-8,7.6h-79.8c-4.4,0-8-3.4-8-7.6C297.2,255.9,300.7,252.5,305.1,252.5z M171,171.9c-27.6,0-50.1-22.5-50.1-50.1
			c0-21.8,14-40.3,33.4-47.2V38.3h33.4v36.3c19.4,6.9,33.4,25.5,33.4,47.2h-33.4c0-9.2-7.5-16.7-16.7-16.7
			c-9.2,0-16.7,7.5-16.7,16.7c0,9.2,7.5,16.7,16.7,16.7c27.6,0,50.1,22.5,50.1,50.1c0,21.8-14,40.4-33.4,47.2v36.3h-33.4v-36.3
			c-19.4-6.9-33.4-25.5-33.4-47.2h33.4c0,9.2,7.5,16.7,16.7,16.7c9.2,0,16.7-7.5,16.7-16.7C187.7,179.4,180.2,171.9,171,171.9z
			 M181.7,354.1c-3.1-5.1-6-7.9-8.6-8.3c-1.5-0.2-3.2-0.4-5.4-0.5c-2.1-0.1-4-0.2-5.5-0.2H159v82c0,1.8,0.3,3.3,0.9,4.7
			c0.6,1.4,1.8,2.4,3.5,3.2c1,0.4,2.7,0.9,4.9,1.4c2.2,0.5,4.1,0.8,5.6,1v5.7h-54v-5.7c1.3-0.1,3.2-0.4,5.6-0.6c2.4-0.3,4-0.6,4.9-1
			c1.8-0.8,3-1.8,3.5-3.2c0.6-1.3,0.9-2.9,0.9-4.7v-82.8h-3.2c-1.5,0-3.4,0.1-5.5,0.2c-2.1,0.1-3.9,0.3-5.4,0.5
			c-2.6,0.4-5.5,3.1-8.6,8.3c-3.1,5.1-5.4,9.9-6.8,14.4H100v-29.9h93.8v29.9h-5.3C187.1,364,184.8,359.2,181.7,354.1z M413.8,443.1
			h-59v-5.7c5.6-0.3,9.3-0.9,10.9-1.6c1.6-0.7,2.5-1.7,2.5-2.8c0-0.6-0.3-1.7-0.9-3.1c-0.6-1.4-1.4-3-2.5-4.8
			c-1.6-2.9-3.7-6.5-6.4-10.9c-2.7-4.3-5.4-8.8-8.3-13.5c-9.5,11.9-15.6,19.9-18.2,23.8c-2.6,3.9-3.9,6.5-3.9,7.8
			c0,0.7,0.1,1.3,0.3,1.7c0.2,0.5,0.7,0.9,1.6,1.4c0.6,0.4,1.7,0.8,3.3,1.1c1.5,0.3,3.4,0.6,5.5,0.8v5.7h-34.4v-5.7
			c-0.5,0-0.9-0.1-1.4-0.2c-0.6,0.1-1.1,0.1-1.8,0.2v5.7h-49.5v-5.7c2.5-0.2,5.3-0.7,8.6-1.4c3.3-0.8,5-1.7,5-2.8
			c0-0.4,0-0.8-0.1-1.3c-0.1-0.5-0.3-1.2-0.6-2l-8.3-21.7H223c-0.8,2-1.6,4.4-2.5,7.1c-0.9,2.7-1.7,5.1-2.4,7.2
			c-0.9,2.8-1.4,4.7-1.5,6c-0.2,1.2-0.2,2.1-0.2,2.6c0,1.6,1.1,2.9,3.3,4s5.9,1.9,11,2.4v5.7h-39.7v-5.7c1.5-0.1,3.2-0.4,5.1-0.8
			c1.9-0.4,3.4-1,4.5-1.7c1.9-1.2,3.4-2.6,4.7-4.3c1.3-1.7,2.4-3.8,3.2-6.1c5.3-13.8,10.6-27.6,15.9-41.5
			c5.3-13.9,11.2-29.1,17.6-45.8h13.6c8.9,23.7,15.9,42.4,20.9,56.2c5,13.8,9.3,25.2,12.9,34.2c0.6,1.5,1.3,2.8,2.3,4
			c0.9,1.2,2.2,2.3,3.9,3.4c1.3,0.8,2.8,1.4,4.4,1.8c1.1,0.3,2.2,0.4,3.1,0.6c1.1-0.1,2.1-0.3,2.9-0.5c1.2-0.3,2.3-0.7,3.4-1.3
			c2.6-1.3,5-3,7-5c2-2,4.2-4.4,6.4-7.1c3.2-3.9,6.8-8.3,10.8-13.2c4-4.9,8.2-10.1,12.6-15.7c-4.2-6.8-8.4-13.5-12.5-19.9
			c-4.2-6.4-7.7-11.9-10.6-16.4c-1.5-2.3-3.3-4.5-5.4-6.8c-2.2-2.3-4.4-3.9-6.8-4.9c-1.2-0.5-2.5-1-4-1.4c-1.5-0.4-3.2-0.6-5.3-0.8
			v-5.7h59.1v5.7c-4.6,0.2-8,0.6-10.2,1.3c-2.2,0.7-3.3,1.7-3.3,3.1c0,0.7,0.2,1.6,0.6,2.6c0.4,1.1,1.3,2.7,2.6,5
			c1.1,2,2.8,4.8,5.1,8.6c2.3,3.8,4.9,8.1,7.8,12.9c8.6-11,14-18.2,16.2-21.6c2.2-3.4,3.3-5.7,3.3-6.9c0-1.4-0.6-2.5-1.9-3.2
			c-1.3-0.7-4.2-1.3-8.9-1.8v-5.7h37.7v5.7c-1.7,0-3.1,0.2-4.3,0.5c-1.1,0.3-2.4,0.8-3.9,1.4c-2.8,1.4-5.2,3.1-7.1,5.1
			c-1.9,2-4,4.4-6.3,7.1c-3.4,4-6.6,8-9.7,11.8c-3.1,3.8-6.8,8.5-11.3,14c5.5,8.9,10.2,16.4,14.1,22.5c3.9,6,7.6,11.7,11.1,17
			c1.4,2.3,3.1,4.5,5.3,6.8c2.2,2.3,4.4,3.9,6.7,4.9c1.1,0.4,2.3,0.9,3.8,1.3c1.4,0.4,3.3,0.7,5.6,0.8V443.1z"/>
	</g>
</g>
</svg>
