<?xml version="1.0" encoding="utf-8"?>
<!-- Generator: Adobe Illustrator 24.0.0, SVG Export Plug-In . SVG Version: 6.00 Build 0)  -->
<svg version="1.1" xmlns="http://www.w3.org/2000/svg" xmlns:xlink="http://www.w3.org/1999/xlink" x="0px" y="0px"
	 viewBox="0 0 512 512" style="enable-background:new 0 0 512 512;" xml:space="preserve">
<style type="text/css">
	.st0{display:none;}
	.st1{display:inline;}
	.st2{fill:#24E900;}
	.st3{fill:#FFFFFF;}
</style>
<g id="Layer_1" class="st0">
	<g class="st1">
		<g>
			<path class="st2" d="M511,1v510H1V1H511 M512,0H0v512h512V0L512,0z"/>
		</g>
		<g>
			<path class="st2" d="M505,7v498H7V7H505 M506,6H6v500h500V6L506,6z"/>
		</g>
	</g>
</g>
<g id="Layer_2">
	<g>
		<g>
			<path class="st3" d="M335.5,292.5H118.8c-7.2,0-13.2-5.9-13.2-13.2v0c0-7.2,5.9-13.2,13.2-13.2h216.7c7.2,0,13.2,5.9,13.2,13.2v0
				C348.7,286.6,342.8,292.5,335.5,292.5z"/>
			<path class="st3" d="M248.9,346.9H116.4c-5.9,0-10.8-4.8-10.8-10.8v-4.8c0-5.9,4.8-10.8,10.8-10.8h132.4
				c5.9,0,10.8,4.8,10.8,10.8v4.8C259.6,342.1,254.8,346.9,248.9,346.9z"/>
			<path class="st3" d="M335.5,397H118.8c-7.2,0-13.2-5.9-13.2-13.2v0c0-7.2,5.9-13.2,13.2-13.2h216.7c7.2,0,13.2,5.9,13.2,13.2v0
				C348.7,391.1,342.8,397,335.5,397z"/>
		</g>
		<g>
			<g>
				<path class="st3" d="M409.3,114l-9.7-9.7l49.2-49.2l-18.3-18.3c-26.5,26.5-52.9,53.1-79.4,79.7c-0.9,0.9-1.6,2.4-1.8,3.7
					c-1.4,9.9-2.6,19.9-3.9,29.8c-0.9,7-1.8,14-2.7,21.4c1.4-0.1,2.3-0.1,3.2-0.2c16-2.3,32.1-4.5,48.1-6.9c1.4-0.2,2.8-1.1,3.9-2.1
					c12.6-12.6,25.2-25.2,37.8-37.8c13.7-13.7,27.4-27.5,41.1-41.2l-18.3-18.3L409.3,114z"/>
				<path class="st3" d="M448.8,55.1l9.7,9.7l9.7-9.7l18.2,18.2c4.2-4.2,8.5-8.5,12.7-12.7c5.2-5.2,5.2-11.1,0.1-16.2
					c-10.1-10.2-20.3-20.3-30.5-30.4c-4.8-4.7-10.8-4.7-15.5,0c-4.3,4.3-8.7,8.7-13,13l18.3,18.3L448.8,55.1z"/>
			</g>
			<g>
				<path class="st3" d="M410.8,391.8c0,45-36.8,81.8-81.8,81.8H118.8c-45,0-81.8-36.8-81.8-81.8V181.6c0-45,36.8-81.8,81.8-81.8
					h152.8V73.2H103.9c-51.4,0-93.5,42.1-93.5,93.5v240.1c0,51.4,42.1,93.5,93.5,93.5h240.1c51.4,0,93.5-42.1,93.5-93.5V243.9h-26.6
					V391.8z"/>
			</g>
		</g>
	</g>
</g>
</svg>
