<?xml version="1.0" encoding="utf-8"?>
<!-- Generator: Adobe Illustrator 24.0.0, SVG Export Plug-In . SVG Version: 6.00 Build 0)  -->
<svg version="1.1" xmlns="http://www.w3.org/2000/svg" xmlns:xlink="http://www.w3.org/1999/xlink" x="0px" y="0px"
	 viewBox="0 0 512 512" style="enable-background:new 0 0 512 512;" xml:space="preserve">
<style type="text/css">
	.st0{display:none;}
	.st1{display:inline;}
	.st2{fill:#24E900;}
	.st3{fill:#FFFFFF;}
</style>
<g id="Layer_1" class="st0">
	<g class="st1">
		<g>
			<path class="st2" d="M511,1v510H1V1H511 M512,0H0v512h512V0L512,0z"/>
		</g>
		<g>
			<path class="st2" d="M505,7v498H7V7H505 M506,6H6v500h500V6L506,6z"/>
		</g>
	</g>
</g>
<g id="Layer_2">
	<g>
		<g>
			<path class="st3" d="M356.4,88.3H71.8C61.4,88.3,53,96.7,53,107v378.2c0,10.3,8.4,18.7,18.7,18.7h284.6
				c10.3,0,18.7-8.4,18.7-18.7V107C375.1,96.7,366.7,88.3,356.4,88.3z M292.9,352.1H141c-8.8,0-16-7.2-16-16s7.2-16,16-16h151.9
				c8.8,0,16,7.2,16,16S301.7,352.1,292.9,352.1z M292.9,288.2H141c-8.8,0-16-7.2-16-16s7.2-16,16-16h151.9c8.8,0,16,7.2,16,16
				S301.7,288.2,292.9,288.2z M292.9,224.2H141c-8.8,0-16-7.2-16-16s7.2-16,16-16h151.9c8.8,0,16,7.2,16,16S301.7,224.2,292.9,224.2
				z"/>
		</g>
		<g>
			<path class="st3" d="M460.7,56.3v351.7c0,24.1-19.4,48-53.7,48V107c0-28-22.7-50.7-50.7-50.7H106.7c0-26.5,22.8-48,50.8-48h252.4
				C437.9,8.4,460.7,29.9,460.7,56.3z"/>
		</g>
	</g>
</g>
</svg>
