<?xml version="1.0" encoding="utf-8"?>
<!-- Generator: Adobe Illustrator 24.0.0, SVG Export Plug-In . SVG Version: 6.00 Build 0)  -->
<svg version="1.1" xmlns="http://www.w3.org/2000/svg" xmlns:xlink="http://www.w3.org/1999/xlink" x="0px" y="0px"
	 viewBox="0 0 512 512" style="enable-background:new 0 0 512 512;" xml:space="preserve">
<style type="text/css">
	.st0{display:none;}
	.st1{display:inline;}
	.st2{fill:#24E900;}
	.st3{fill:#FFFFFF;}
</style>
<g id="Layer_1" class="st0">
	<g class="st1">
		<g>
			<path class="st2" d="M511,1v510H1V1H511 M512,0H0v512h512V0L512,0z"/>
		</g>
		<g>
			<path class="st2" d="M505,7v498H7V7H505 M506,6H6v500h500V6L506,6z"/>
		</g>
	</g>
</g>
<g id="Layer_2">
	<g>
		<g>
			<g>
				<g>
					<path class="st3" d="M346.7,300.3h-29.2c-18.4,0-33.4-15-33.4-33.4s15-33.4,33.4-33.4h29.2c2.3,0,4.2-1.9,4.2-4.2v-12.5
						c0-8.8-6.8-15.9-15.4-16.6l-24-41.9c-2.2-3.9-5.8-6.6-10.1-7.8c-4.3-1.1-8.7-0.5-12.6,1.7l-82.2,47.8h-14.4
						c-9.2,0-16.7,7.5-16.7,16.7V317c0,9.2,7.5,16.7,16.7,16.7h141.9c9.2,0,16.7-7.5,16.7-16.7v-12.5
						C350.9,302.2,349,300.3,346.7,300.3z M316.7,184.3l9.1,15.9h-36.4L316.7,184.3z M223.3,200.2l69.8-40.6
						c1.9-1.1,4.1-1.4,6.2-0.8c2.1,0.6,3.9,1.9,5,3.9l0,0l-64.5,37.6H223.3z"/>
					<path class="st3" d="M346.7,241.9h-29.2c-13.8,0-25,11.2-25,25s11.2,25,25,25h29.2c6.9,0,12.5-5.6,12.5-12.5v-25
						C359.2,247.5,353.6,241.9,346.7,241.9z M317.5,275.3c-4.6,0-8.3-3.7-8.3-8.3s3.7-8.3,8.3-8.3c4.6,0,8.3,3.7,8.3,8.3
						C325.9,271.5,322.1,275.3,317.5,275.3z"/>
				</g>
			</g>
		</g>
		<g>
			<path class="st3" d="M498.8,157.6l-35.4-34.2c-2.8-2.6-7.2-2.5-9.8,0.3c-1.2,1.3-1.9,2.9-1.9,4.6v15h-62.1
				c-7.6,0-13.8,6.2-13.8,13.8v20.7c0,7.6,6.2,13.8,13.8,13.8h62.1v15c0.1,3.8,3.2,6.9,7,6.8c1.7,0,3.4-0.7,4.7-1.9l35.4-34.2
				c5.5-5.3,5.6-14.1,0.3-19.6C499,157.8,498.9,157.7,498.8,157.6L498.8,157.6z"/>
			<path class="st3" d="M10.2,331l35.4,34.2c2.8,2.6,7.2,2.5,9.8-0.3c1.2-1.3,1.9-2.9,1.9-4.6v-15h62.1c7.6,0,13.8-6.2,13.8-13.8
				v-20.7c0-7.6-6.2-13.8-13.8-13.8H57.3v-15c-0.1-3.8-3.2-6.9-7-6.8c-1.7,0-3.4,0.7-4.7,1.9l-35.4,34.2c-5.5,5.3-5.6,14.1-0.3,19.6
				C10,330.8,10.1,330.9,10.2,331L10.2,331z"/>
			<path class="st3" d="M419.2,252.2c0,84.4-68.4,152.9-152.9,152.9c-36.7,0-70.4-12.9-96.7-34.5h-44.8
				c33.8,40.4,84.7,66.1,141.5,66.1c101.9,0,184.5-82.6,184.5-184.5c0-7.7-0.5-15.4-1.4-22.9h-31.9
				C418.6,236.8,419.2,244.5,419.2,252.2z"/>
			<path class="st3" d="M113.5,252.2c0-84.4,68.4-152.9,152.9-152.9c31.8,0,61.3,9.7,85.8,26.3h48.5c-33.6-35.7-81.3-58-134.3-58
				c-101.9,0-184.5,82.6-184.5,184.5c0,4.9,0.2,9.8,0.6,14.7h31.8C113.7,262.1,113.5,257.2,113.5,252.2z"/>
		</g>
	</g>
</g>
</svg>
