<?xml version="1.0" encoding="utf-8"?>
<!-- Generator: Adobe Illustrator 24.0.0, SVG Export Plug-In . SVG Version: 6.00 Build 0)  -->
<svg version="1.1" xmlns="http://www.w3.org/2000/svg" xmlns:xlink="http://www.w3.org/1999/xlink" x="0px" y="0px"
	 viewBox="0 0 512 512" style="enable-background:new 0 0 512 512;" xml:space="preserve">
<style type="text/css">
	.st0{display:none;}
	.st1{display:inline;}
	.st2{fill:#24E900;}
	.st3{fill:#FFFFFF;}
</style>
<g id="Layer_1" class="st0">
	<g class="st1">
		<g>
			<path class="st2" d="M511,1v510H1V1H511 M512,0H0v512h512V0L512,0z"/>
		</g>
		<g>
			<path class="st2" d="M505,7v498H7V7H505 M506,6H6v500h500V6L506,6z"/>
		</g>
	</g>
</g>
<g id="Layer_2">
	<g>
		<path class="st3" d="M424.9,356.2h-80v-32h-64v160h208v-160h-64V356.2z M408.9,468.2h-16v-16h16V468.2z M440.9,468.2h-16v-16h16
			V468.2z M472.9,468.2h-16v-16h16V468.2z M472.9,436.2h-80v-16h80V436.2z"/>
		<path class="st3" d="M360.9,324.2h48v16h-48V324.2z"/>
		<path class="st3" d="M328.9,132.2h80v32h48v-144h-48v32h-80v-32h-48v144h48V132.2z"/>
		<path class="st3" d="M120.9,20.2h48v16h-48V20.2z"/>
		<path class="st3" d="M344.9,20.2h48v16h-48V20.2z"/>
		<path class="st3" d="M104.9,132.2h80v32h48v-144h-48v32h-80v-32h-48v144h48V132.2z"/>
		<circle class="st3" cx="128.9" cy="228.2" r="48"/>
		<path class="st3" d="M344.9,148.2h48v16h-48V148.2z"/>
		<path class="st3" d="M120.9,148.2h48v16h-48V148.2z"/>
		<path class="st3" d="M128.9,292.2c-57.3,0-104,46.7-104,104c0,13.2,10.8,24,24,24h76c6.6,0,12-5.4,12-12s-5.4-12-12-12h-68v-16h24
			v-56h83.3l44.7,44.7v115.3h24v-88C232.9,338.9,186.2,292.2,128.9,292.2z"/>
		<path class="st3" d="M86.7,180.2H24.9v16h48.7C77,190.2,81.5,184.8,86.7,180.2z"/>
		<path class="st3" d="M168.9,364.2h12.7l-12.7-12.7V364.2z"/>
		<path class="st3" d="M171.1,180.2c5.2,4.6,9.6,10,13.2,16h304.7v-16H171.1z"/>
		<path class="st3" d="M48.9,436.2h32v48h-32V436.2z"/>
		<path class="st3" d="M152.9,340.2h-56v40h28c15.4,0,28,12.6,28,28s-12.6,28-28,28h-28v48h96v-104h-40V340.2z"/>
	</g>
</g>
</svg>
