<?xml version="1.0" encoding="utf-8"?>
<!-- Generator: Adobe Illustrator 24.0.0, SVG Export Plug-In . SVG Version: 6.00 Build 0)  -->
<svg version="1.1" xmlns="http://www.w3.org/2000/svg" xmlns:xlink="http://www.w3.org/1999/xlink" x="0px" y="0px"
	 viewBox="0 0 512 512" style="enable-background:new 0 0 512 512;" xml:space="preserve">
<style type="text/css">
	.st0{display:none;}
	.st1{display:inline;}
	.st2{fill:#24E900;}
	.st3{fill:#FFFFFF;}
</style>
<g id="Layer_1" class="st0">
	<g class="st1">
		<g>
			<path class="st2" d="M511,1v510H1V1H511 M512,0H0v512h512V0L512,0z"/>
		</g>
		<g>
			<path class="st2" d="M505,7v498H7V7H505 M506,6H6v500h500V6L506,6z"/>
		</g>
	</g>
</g>
<g id="Layer_2">
	<g>
		<g>
			<path class="st3" d="M176.9,244.4c0.7,19.1,1.5,39.8,2.2,58.9c0.9,22.6,19.2,40.2,41.8,40.2s40.9-17.7,41.8-40.2l2.3-58.9
				C236,238.1,205.8,238.1,176.9,244.4L176.9,244.4z"/>
			<path class="st3" d="M190.1,351.2c0.1,0,0.1-0.3-7.5,20.7l9.1,9.1c0.6,0.6,11.4,10.8,29.3,10.8c18,0,29.1-10.6,29.2-10.7l9.1-9.1
				c-7.8-21.6-7.5-20.7-7.5-20.7C233,362.9,208.9,362.9,190.1,351.2L190.1,351.2z"/>
			<path class="st3" d="M220.9,408.1c-25,0-40.2-14.9-40.8-15.5l-7.9-7.9v45.9c22.1,0,53.3,0,97.4,0v-45.9l-7.9,7.9
				C261.1,393.2,245.9,408.1,220.9,408.1L220.9,408.1z"/>
			<path class="st3" d="M162.5,299.7c-0.6-16.2-2-52.2-2.3-60.8c-0.1-4.4,2.2-8,6.3-8.9c35.6-8.9,73.3-8.9,109,0
				c3.8,0.9,6.4,4.2,6.2,8.3c-0.2,4.6-2.3,61-2.4,61.5c85.4-24.6,77.3-92-16.4-109.9l0,0c-27-5.1-57.2-5.1-84,0
				c0,0.4-36.1,5.4-59,25C89.6,240.6,98.8,281.4,162.5,299.7L162.5,299.7z"/>
			<path class="st3" d="M261.3,172.8c-1.3-13.3-12.2-22.5-24.5-22.5h-31.6c-12.4,0-23.2,9.1-24.5,22.5
				C206.7,168.4,235.1,168.4,261.3,172.8L261.3,172.8z"/>
			<path class="st3" d="M325.5,403.5c-3.5-14.5-16.6-24.9-31.9-24.9h-7.6v52c11.1,0,22.9,0,35.6,0c5.2,0,9.2-4.9,8-10
				C329.5,419.9,330.1,422.5,325.5,403.5z"/>
			<path class="st3" d="M155.8,378.6h-7.6c-15.3,0-28.3,10.5-31.9,24.9c-4.3,18-4.3,17.5-4.3,18.8c0,3.7,2.5,7.1,6.3,8
				c0.8,0.2-3.3,0.2,37.5,0.2V378.6z"/>
		</g>
		<g>
			<g>
				<path class="st3" d="M408.2,115.1l-9.6-9.6l49-49l-18.3-18.3c-26.4,26.4-52.7,52.9-79,79.3c-0.9,0.9-1.6,2.4-1.8,3.7
					c-1.4,9.9-2.6,19.8-3.9,29.7c-0.9,7-1.8,13.9-2.7,21.3c1.4-0.1,2.3-0.1,3.2-0.2c16-2.3,31.9-4.5,47.9-6.9
					c1.4-0.2,2.8-1.1,3.8-2.1c12.6-12.5,25.1-25.1,37.6-37.7c13.6-13.7,27.3-27.3,40.9-41l-18.2-18.2L408.2,115.1z"/>
				<path class="st3" d="M447.5,56.4l9.6,9.6l9.6-9.6L485,74.6c4.2-4.2,8.4-8.4,12.6-12.7c5.2-5.2,5.2-11,0.1-16.2
					c-10.1-10.1-20.2-20.2-30.4-30.3c-4.7-4.7-10.8-4.7-15.5,0c-4.3,4.3-8.6,8.7-13,13l18.3,18.3L447.5,56.4z"/>
			</g>
			<g>
				<path class="st3" d="M409.7,391.7c0,44.8-36.7,81.5-81.5,81.5H118.9c-44.8,0-81.5-36.7-81.5-81.5V182.4
					c0-44.8,36.7-81.5,81.5-81.5h152.2V74.4H104c-51.2,0-93.1,41.9-93.1,93.1v239.1c0,51.2,41.9,93.1,93.1,93.1h239.1
					c51.2,0,93.1-41.9,93.1-93.1V244.4h-26.5V391.7z"/>
			</g>
		</g>
	</g>
</g>
</svg>
