<?xml version="1.0" encoding="utf-8"?>
<!-- Generator: Adobe Illustrator 24.0.0, SVG Export Plug-In . SVG Version: 6.00 Build 0)  -->
<svg version="1.1" xmlns="http://www.w3.org/2000/svg" xmlns:xlink="http://www.w3.org/1999/xlink" x="0px" y="0px"
	 viewBox="0 0 512 512" style="enable-background:new 0 0 512 512;" xml:space="preserve">
<style type="text/css">
	.st0{display:none;}
	.st1{display:inline;}
	.st2{fill:#24E900;}
	.st3{fill:#FFFFFF;}
</style>
<g id="Layer_1" class="st0">
	<g class="st1">
		<g>
			<path class="st2" d="M511,1v510H1V1H511 M512,0H0v512h512V0L512,0z"/>
		</g>
		<g>
			<path class="st2" d="M505,7v498H7V7H505 M506,6H6v500h500V6L506,6z"/>
		</g>
	</g>
</g>
<g id="Layer_2">
	<g>
		<g>
			<path class="st3" d="M341,125.1h90l-104-104v90C327,118.8,333.3,125.1,341,125.1z"/>
		</g>
		<g>
			<path class="st3" d="M116.6,491.6h280.5c23.2,0,42.1-18.9,42.1-42.1V153.1H341c-23.2,0-42.1-18.9-42.1-42.1V12.8H116.6
				c-23.2,0-42.1,18.9-42.1,42.1v394.6C74.5,472.8,93.4,491.6,116.6,491.6z M200.8,238.2H341c7.8,0,14,6.3,14,14c0,7.8-6.3,14-14,14
				H200.8c-7.8,0-14-6.3-14-14C186.7,244.5,193,238.2,200.8,238.2z M200.8,294.3H341c7.8,0,14,6.3,14,14s-6.3,14-14,14H200.8
				c-7.8,0-14-6.3-14-14S193,294.3,200.8,294.3z M200.8,350.4H341c7.8,0,14,6.3,14,14c0,7.8-6.3,14-14,14H200.8c-7.8,0-14-6.3-14-14
				C186.7,356.7,193,350.4,200.8,350.4z M144.7,238.2c7.7,0,14,6.3,14,14c0,7.7-6.3,14-14,14c-7.7,0-14-6.3-14-14
				C130.6,244.5,136.9,238.2,144.7,238.2z M144.7,294.3c7.7,0,14,6.3,14,14s-6.3,14-14,14c-7.7,0-14-6.3-14-14
				S136.9,294.3,144.7,294.3z M144.7,350.4c7.7,0,14,6.3,14,14s-6.3,14-14,14c-7.7,0-14-6.3-14-14S136.9,350.4,144.7,350.4z"/>
		</g>
	</g>
</g>
</svg>
